<svg inkscape:version="1.2.2 (732a01da63, 2022-12-09)" sodipodi:docname="kuba_arrow_button_set_2.svg" version="1.0" viewBox="0 0 38 38" xmlns="http://www.w3.org/2000/svg" xmlns:inkscape="http://www.inkscape.org/namespaces/inkscape" xmlns:sodipodi="http://sodipodi.sourceforge.net/DTD/sodipodi-0.dtd">
 <sodipodi:namedview bordercolor="#000000" borderopacity="0.25" inkscape:current-layer="svg5683" inkscape:cx="7.7230645" inkscape:cy="34.402742" inkscape:deskcolor="#d1d1d1" inkscape:pagecheckerboard="0" inkscape:pageopacity="0.0" inkscape:showpageshadow="2" inkscape:window-height="1009" inkscape:window-maximized="1" inkscape:window-width="1920" inkscape:window-x="-8" inkscape:window-y="-8" inkscape:zoom="7.1215254" pagecolor="#ffffff" showgrid="false"/>
 <defs>
  <linearGradient id="c" x1="314.57" x2="332.02" y1="369.98" y2="387.44" gradientUnits="userSpaceOnUse">
   <stop stop-color="#1c97e1" offset="0"/>
   <stop stop-color="#006798" offset="1"/>
  </linearGradient>
  <linearGradient id="b" x1="661.46" x2="681" y1="300.41" y2="323.17" gradientTransform="matrix(.80139 0 0 1.2478 -292.85 -373.34)" gradientUnits="userSpaceOnUse">
   <stop stop-color="#fff" stop-opacity=".72656" offset="0"/>
   <stop stop-color="#fff" offset="1"/>
  </linearGradient>
  <linearGradient id="a" x1="302.74" x2="311.27" y1="377.95" y2="390.78" gradientTransform="matrix(1.9519,0,0,1.8418,-374.85,-700.98)" gradientUnits="userSpaceOnUse">
   <stop stop-color="#fff" offset="0"/>
   <stop stop-color="#fff" stop-opacity="0" offset="1"/>
  </linearGradient>
 </defs>
 <g transform="matrix(.61302 0 0 .61302 -129.63 9.2778)">
  <path transform="matrix(1.8961,0,0,1.8961,-374.85,-700.98)" d="m339.54 378.06a13.97 13.97 0 1 1-27.94 0 13.97 13.97 0 1 1 27.94 0z" color="#000000" fill="#166496"/>
  <path transform="matrix(1.7312,0,0,1.7312,-321.18,-638.64)" d="m339.54 378.06a13.97 13.97 0 1 1-27.94 0 13.97 13.97 0 1 1 27.94 0z" color="#000000" fill="url(#c)" stroke="#fff" stroke-width=".72205"/>
  <path d="m242.43-8.3201c-13.34 0-24.17 10.828-24.17 24.175 0 6.412 2.61 12.143 6.69 16.472 2.12-17.501 16.89-31.108 34.96-31.108 0.49 4e-4 0.94 0.0994 1.42 0.1189-4.42-5.7507-11.09-9.658-18.9-9.658z" color="#000000" fill="url(#a)"/>
  <path d="m239.2 0.054592-4.13 4.1313 11.7 11.7-11.59 11.588 4.16 4.162 15.72-15.719-15.86-15.862z" color="#000000" fill="url(#b)"/>
 </g>
</svg>
