<svg width="32" height="32" fill="none" version="1.1" viewBox="0 0 .96 .96" xmlns="http://www.w3.org/2000/svg">
 <path d="m.49494.66989v-.22024" stroke="#1c274c" stroke-linecap="round" stroke-width=".055061"/>
 <circle transform="scale(1,-1)" cx=".49494" cy="-.33953" r=".036707" fill="#1c274c" stroke-width=".036707"/>
 <path d="m.86201.48636c0 .17304 0 .25956-.053757.31331-.053754.053757-.14028.053757-.31331.053757-.17304 0-.25956 0-.31331-.053757-.053756-.053754-.053756-.14028-.053756-.31331 0-.17304 0-.25956.053756-.31331.053756-.053756.14028-.053756.31331-.053756.17304 0 .25956 0 .31331.053756.035743.035743.047725.085971.051732.16649" stroke="#1c274c" stroke-linecap="round" stroke-width=".055061"/>
</svg>
