<svg width="32" height="32" version="1.1" viewBox="0 0 1.12 1.12" xmlns="http://www.w3.org/2000/svg">
 <path d="m.17299.2362c0-.066867.054207-.12107.12107-.12107h.50292c.066867 0 .12107.054206.12107.12107v.45184c-.004483.003-.008748.006482-.012701.010443l-.043175.043177v-.50546c0-.036006-.02919-.065194-.065194-.065194h-.50292c-.036008 0-.065194.029188-.065194.065194v.65193c0 .036006.02919.065194.065194.065194h.30055l.055881.05588h-.35643c-.066868 0-.12107-.054208-.12107-.12107z" fill="#212121" stroke-width=".037254"/>
 <path d="m.41513.36659c0 .025718-.020848.046567-.046566.046567-.02572 0-.046566-.020849-.046566-.046567s.020848-.046567.046566-.046567c.025717 0 .046566.020849.046566.046567z" fill="#212121" stroke-width=".037254"/>
 <path d="m.36857.60873c.025717 0 .046566-.020847.046566-.046567 0-.025716-.020848-.046567-.046566-.046567-.02572 0-.046566.020851-.046566.046567 0 .02572.020848.046567.046566.046567z" fill="#212121" stroke-width=".037254"/>
 <path d="m.36857.80432c.025717 0 .046566-.020847.046566-.046567 0-.02572-.020848-.046567-.046566-.046567-.02572 0-.046566.020847-.046566.046567 0 .02572.020848.046567.046566.046567z" fill="#212121" stroke-width=".037254"/>
 <path d="m.49895.33865c-.015429 0-.02794.012509-.02794.02794 0 .015431.012512.02794.02794.02794h.24215c.015429 0 .02794-.012509.02794-.02794 0-.015431-.012511-.02794-.02794-.02794z" fill="#212121" stroke-width=".037254"/>
 <path d="m.47101.56216c0-.01543.012512-.02794.02794-.02794h.24215c.015429 0 .02794.01251.02794.02794 0 .01543-.012511.02794-.02794.02794h-.24215c-.015429 0-.02794-.01251-.02794-.02794z" fill="#212121" stroke-width=".037254"/>
 <path d="m.49895.72981c-.015429 0-.02794.01251-.02794.02794 0 .01543.012512.02794.02794.02794h.24215c.015429 0 .02794-.01251.02794-.02794 0-.01543-.012511-.02794-.02794-.02794z" fill="#212121" stroke-width=".037254"/>
 <path d="m.98438.77751-.22352.22352c-.00524.00524-.012344.00818-.019754.00818-.007407 0-.01452-.00294-.019754-.00818l-.11169-.11169c-.010915-.010912-.010915-.028603 0-.039515.010915-.010912.028602-.010912.039516 0l.091931.09193.20377-.20376c.010915-.010912.028598-.010912.039512 0 .010915.010912.010915.0286 0 .039511z" fill="#212121" stroke-width=".037254"/>
</svg>
